# xmcd
#
# Track frame offsets: 
#        150
#        13809
#        25251
#        41960
#        52812
#        68557
#        84016
#        97693
#        116799
#        132830
#        147030
#        163102
#
# Disc length: 2412 seconds
#
# Revision: 0
# Processed by: cddbd v1.5.2PL0 Copyright (c) Steve Scherf et al.
# Submitted via: ExactAudioCopy v0.99pb4
#
DISCID=91096a0c
DTITLE=Shane Worley - Mister Purified Country
DYEAR=2009
DGENRE=Country
TTITLE0=Two Beers Ago
TTITLE1=Sweet Revenge
TTITLE2=Is There Any Love
TTITLE3=Talk Is Cheap
TTITLE4=Mister Purified Country
TTITLE5=Them Old Hank Songs
TTITLE6=Single Again
TTITLE7=Soul Of A Lonely Man
TTITLE8=The Right To Be Wrong
TTITLE9=Out Of The Blue
TTITLE10=What Have You Got Planned Tonight Diana
TTITLE11=Lonesome, On'ry and Mean
EXTD=
EXTT0=
EXTT1=
EXTT2=
EXTT3=
EXTT4=
EXTT5=
EXTT6=
EXTT7=
EXTT8=
EXTT9=
EXTT10=
EXTT11=
PLAYORDER=
